<svg width="86" height="23" viewBox="0 0 86 23" fill="none" xmlns="http://www.w3.org/2000/svg">
<path d="M16.2051 17.1992H7.45117L6.57227 19.3965H7.45117C8.31836 19.3965 8.93359 19.5664 9.29688 19.9062C9.67188 20.2344 9.85938 20.668 9.85938 21.207C9.85938 21.7344 9.67188 22.168 9.29688 22.5078C8.93359 22.8359 8.31836 23 7.45117 23H2.59961C1.73242 23 1.11719 22.8359 0.753906 22.5078C0.378906 22.168 0.191406 21.7285 0.191406 21.1895C0.191406 20.6504 0.384766 20.2109 0.771484 19.8711C1.1582 19.5312 1.79688 19.373 2.6875 19.3965L8.34766 5.29883H5.99219C5.125 5.29883 4.50391 5.13477 4.12891 4.80664C3.76562 4.4668 3.58398 4.02734 3.58398 3.48828C3.58398 2.94922 3.76562 2.51563 4.12891 2.1875C4.50391 1.84766 5.125 1.67773 5.99219 1.67773L13.7793 1.69531L20.9512 19.3965C21.7949 19.3965 22.3516 19.4902 22.6211 19.6777C23.1602 20.0645 23.4297 20.5742 23.4297 21.207C23.4297 21.7344 23.248 22.168 22.8848 22.5078C22.5215 22.8359 21.9062 23 21.0391 23H16.1875C15.3203 23 14.6992 22.8359 14.3242 22.5078C13.9609 22.168 13.7793 21.7285 13.7793 21.1895C13.7793 20.6621 13.9609 20.2344 14.3242 19.9062C14.6992 19.5664 15.3203 19.3965 16.1875 19.3965H17.0664L16.2051 17.1992ZM14.7109 13.5957L11.8105 6.45898L8.89258 13.5957H14.7109ZM32.6758 7.03906V9.28906C34.1875 8.19922 35.377 7.47266 36.2441 7.10938C37.123 6.74609 37.9434 6.56445 38.7051 6.56445C39.877 6.56445 41.0137 6.99805 42.1152 7.86523C42.8652 8.45117 43.2402 9.04883 43.2402 9.6582C43.2402 10.1738 43.0586 10.6133 42.6953 10.9766C42.3438 11.3281 41.916 11.5039 41.4121 11.5039C40.9668 11.5039 40.498 11.2812 40.0059 10.8359C39.5137 10.3906 39.0742 10.168 38.6875 10.168C38.1836 10.168 37.4277 10.4844 36.4199 11.1172C35.4238 11.75 34.1758 12.6992 32.6758 13.9648V19.3965H37.8086C38.6758 19.3965 39.291 19.5664 39.6543 19.9062C40.0293 20.2344 40.2168 20.668 40.2168 21.207C40.2168 21.7344 40.0293 22.168 39.6543 22.5078C39.291 22.8359 38.6758 23 37.8086 23H26.9277C26.0605 23 25.4395 22.8359 25.0645 22.5078C24.7012 22.168 24.5195 21.7285 24.5195 21.1895C24.5195 20.6621 24.7012 20.2344 25.0645 19.9062C25.4395 19.5664 26.0605 19.3965 26.9277 19.3965H29.0723V10.6426H27.7715C26.9043 10.6426 26.2832 10.4785 25.9082 10.1504C25.5449 9.81055 25.3633 9.37109 25.3633 8.83203C25.3633 8.30469 25.5449 7.87695 25.9082 7.54883C26.2832 7.20898 26.9043 7.03906 27.7715 7.03906H32.6758ZM55.0176 10.6426V19.3965H60.1504C61.0176 19.3965 61.6328 19.5664 61.9961 19.9062C62.3711 20.2344 62.5586 20.668 62.5586 21.207C62.5586 21.7344 62.3711 22.168 61.9961 22.5078C61.6328 22.8359 61.0176 23 60.1504 23H49.2695C48.4023 23 47.7812 22.8359 47.4062 22.5078C47.043 22.168 46.8613 21.7285 46.8613 21.1895C46.8613 20.6621 47.043 20.2344 47.4062 19.9062C47.7812 19.5664 48.4023 19.3965 49.2695 19.3965H51.4141V10.6426H49.6914C48.8242 10.6426 48.2031 10.4785 47.8281 10.1504C47.4648 9.81055 47.2832 9.37109 47.2832 8.83203C47.2832 8.30469 47.4648 7.87695 47.8281 7.54883C48.2031 7.20898 48.8242 7.03906 49.6914 7.03906H51.4141V5.66797C51.4141 4.09766 52 2.79688 53.1719 1.76562C54.3555 0.722656 56.0664 0.201172 58.3047 0.201172C59.3008 0.201172 60.4492 0.294922 61.75 0.482422C63.0625 0.658203 63.9004 0.910156 64.2637 1.23828C64.6387 1.56641 64.8262 1.98828 64.8262 2.50391C64.8262 3.05469 64.6621 3.50586 64.334 3.85742C64.0059 4.19727 63.6016 4.36719 63.1211 4.36719C62.8984 4.36719 62.5645 4.32617 62.1191 4.24414C60.6309 3.95117 59.3125 3.80469 58.1641 3.80469C56.9688 3.80469 56.1426 3.98633 55.6855 4.34961C55.2402 4.70117 55.0176 5.14062 55.0176 5.66797V7.03906H60.5723C61.4395 7.03906 62.0547 7.20898 62.418 7.54883C62.793 7.87695 62.9805 8.31055 62.9805 8.84961C62.9805 9.37695 62.793 9.81055 62.418 10.1504C62.0547 10.4785 61.4395 10.6426 60.5723 10.6426H55.0176ZM77.957 0.201172V4.01562H73.668V0.201172H77.957ZM78.4492 7.03906V19.3965H82.7734C83.6406 19.3965 84.2559 19.5664 84.6191 19.9062C84.9941 20.2344 85.1816 20.668 85.1816 21.207C85.1816 21.7344 84.9941 22.168 84.6191 22.5078C84.2559 22.8359 83.6406 23 82.7734 23H70.5215C69.6543 23 69.0332 22.8359 68.6582 22.5078C68.2949 22.168 68.1133 21.7285 68.1133 21.1895C68.1133 20.6621 68.2949 20.2344 68.6582 19.9062C69.0332 19.5664 69.6543 19.3965 70.5215 19.3965H74.8457V10.6426H71.9453C71.0898 10.6426 70.4746 10.4785 70.0996 10.1504C69.7246 9.81055 69.5371 9.37109 69.5371 8.83203C69.5371 8.30469 69.7188 7.87695 70.082 7.54883C70.457 7.20898 71.0781 7.03906 71.9453 7.03906H78.4492Z" fill="black"/>
</svg>
